<svg width="240" height="96" viewBox="0 0 240 96" fill="none" xmlns="http://www.w3.org/2000/svg" role="img" aria-label="Choi logo">
  <defs>
    <linearGradient id="choi-leaf-gradient" x1="18" y1="18" x2="95" y2="86" gradientUnits="userSpaceOnUse">
      <stop stop-color="#86B93B"/>
      <stop offset="1" stop-color="#1A5D36"/>
    </linearGradient>
  </defs>
  <path d="M62 77C43.775 77 29 62.225 29 44C29 25.775 43.775 11 62 11C72.231 11 81.37 15.656 87.421 22.961L75.596 34.786C72.386 30.705 67.41 28.091 61.825 28.091C52.136 28.091 44.281 35.946 44.281 45.635C44.281 55.324 52.136 63.179 61.825 63.179C67.214 63.179 72.035 60.75 75.253 56.926L87.052 68.725C81.012 73.902 72.124 77 62 77Z" fill="url(#choi-leaf-gradient)"/>
  <path d="M67.965 58.249C78.409 55.144 84.606 48.49 88.28 38.336C78.025 39.008 69.247 44.581 64.979 54.198C72.749 51.306 78.609 47.468 83.867 41.779C79.488 49.08 74.276 54.38 67.965 58.249Z" fill="#4E7D5C"/>
  <path d="M60.3 64.257C65.679 60.494 70.778 58.372 77.851 58.125C74.004 65.194 67.92 68.237 60.3 64.257Z" fill="#86B93B"/>
  <path d="M111.479 65.72C102.769 65.72 96.329 59.49 96.329 50.57C96.329 41.65 102.769 35.42 111.479 35.42C117.289 35.42 121.979 38.25 124.319 42.87L116.939 46.72C115.889 44.66 114.069 43.54 111.689 43.54C107.839 43.54 105.079 46.37 105.079 50.57C105.079 54.77 107.839 57.6 111.689 57.6C114.069 57.6 115.959 56.48 117.009 54.42L124.389 58.2C122.049 62.89 117.289 65.72 111.479 65.72Z" fill="#18201D"/>
  <path d="M145.123 35.42C151.943 35.42 156.283 40.11 156.283 47.63V65H147.603V48.96C147.603 45.32 145.823 43.33 142.743 43.33C139.313 43.33 137.043 45.67 137.043 49.87V65H128.363V24.4H137.043V39.13C139.173 36.61 141.933 35.42 145.123 35.42Z" fill="#18201D"/>
  <path d="M177.062 65.72C168.242 65.72 161.632 59.28 161.632 50.57C161.632 41.86 168.242 35.42 177.062 35.42C185.882 35.42 192.492 41.86 192.492 50.57C192.492 59.28 185.882 65.72 177.062 65.72ZM177.062 57.46C180.982 57.46 183.742 54.56 183.742 50.57C183.742 46.58 180.982 43.68 177.062 43.68C173.142 43.68 170.382 46.58 170.382 50.57C170.382 54.56 173.142 57.46 177.062 57.46Z" fill="#18201D"/>
  <path d="M202.405 32.24C199.505 32.24 197.235 29.97 197.235 27.14C197.235 24.31 199.505 22.04 202.405 22.04C205.305 22.04 207.575 24.31 207.575 27.14C207.575 29.97 205.305 32.24 202.405 32.24ZM198.065 65V36.14H206.745V65H198.065Z" fill="#18201D"/>
  <circle cx="220" cy="38" r="7" fill="#86B93B"/>
  <path d="M213.5 72H225.5" stroke="#4E7D5C" stroke-width="4" stroke-linecap="round"/>
</svg>
