<svg width="180" height="180" viewBox="0 0 180 180" fill="none" xmlns="http://www.w3.org/2000/svg" role="img" aria-label="Choi teapot mascot">
  <rect x="18" y="18" width="144" height="144" rx="36" fill="#0D4A2A"/>
  <path d="M57 82C57 70.954 65.954 62 77 62H113C124.046 62 133 70.954 133 82V96C133 112.569 119.569 126 103 126H87C70.431 126 57 112.569 57 96V82Z" fill="#F7F5EF"/>
  <path d="M52 85L31 72C28.409 70.396 28.814 66.506 31.68 65.474L58 56V84L52 85Z" fill="#F7F5EF"/>
  <path d="M133 83H146C153.18 83 159 88.82 159 96C159 103.18 153.18 109 146 109H135" stroke="#F7F5EF" stroke-width="10" stroke-linecap="round"/>
  <path d="M78 58C78 49.163 85.163 42 94 42C102.837 42 110 49.163 110 58" stroke="#F7F5EF" stroke-width="10" stroke-linecap="round"/>
  <circle cx="94" cy="81" r="6" fill="#0D4A2A"/>
  <path d="M82 98C87.333 102.667 101.667 102.667 107 98" stroke="#0D4A2A" stroke-width="7" stroke-linecap="round"/>
  <path d="M116.151 67.619C127.702 63.794 134.768 55.966 138.828 44.426C127.052 45.07 117.01 51.579 112.228 62.564C120.948 59.262 127.512 54.839 133.348 48.401C128.53 56.657 122.719 62.7 116.151 67.619Z" fill="#86B93B"/>
  <path d="M105.636 74.255C112.24 68.81 118.723 66.004 127.597 65.668C122.832 74.692 114.856 79.116 105.636 74.255Z" fill="#86B93B"/>
</svg>
